<svg id="visual" viewBox="0 0 960 540" width="960" height="540" xmlns="http://www.w3.org/2000/svg" xmlns:xlink="http://www.w3.org/1999/xlink" version="1.1"><rect x="0" y="0" width="960" height="540" fill="#002233"></rect><path d="M0 81L14.5 80C29 79 58 77 87.2 79C116.3 81 145.7 87 174.8 91.2C204 95.3 233 97.7 262 92.8C291 88 320 76 349 74.3C378 72.7 407 81.3 436.2 87.2C465.3 93 494.7 96 523.8 97.2C553 98.3 582 97.7 611 93.5C640 89.3 669 81.7 698 76.3C727 71 756 68 785.2 71.5C814.3 75 843.7 85 872.8 91.2C902 97.3 931 99.7 945.5 100.8L960 102L960 0L945.5 0C931 0 902 0 872.8 0C843.7 0 814.3 0 785.2 0C756 0 727 0 698 0C669 0 640 0 611 0C582 0 553 0 523.8 0C494.7 0 465.3 0 436.2 0C407 0 378 0 349 0C320 0 291 0 262 0C233 0 204 0 174.8 0C145.7 0 116.3 0 87.2 0C58 0 29 0 14.5 0L0 0Z" fill="#ffd803" stroke-linecap="round" stroke-linejoin="miter"></path></svg>